<svg xmlns="http://www.w3.org/2000/svg" width="38" height="24" viewBox="0 0 38 24">
  <g id="pay-mobilepay" transform="translate(-829 -793)">
    <rect id="Rectangle_658" data-name="Rectangle 658" width="38" height="24" rx="5" transform="translate(829 793)" fill="#5a78ff"/>
    <g id="Group_4162" data-name="Group 4162" transform="translate(0.668 0.724)">
      <g id="Group_4161" data-name="Group 4161" transform="translate(841 797)">
        <path id="Path_7880" data-name="Path 7880" d="M23.15,18.017a11.422,11.422,0,0,1,3.192-.579,6.98,6.98,0,0,1,3.619.857V14.115a7.585,7.585,0,0,0-3.319-.812,7.368,7.368,0,0,0-3.493.754Z" transform="translate(-16.745 -8.52)" fill="#fff"/>
        <path id="Path_7881" data-name="Path 7881" d="M20.9,13.213l1.552,3.695V13.367a7.631,7.631,0,0,1,2.6-.842,11.487,11.487,0,0,1,3.116.06l-.845-2.017a7.535,7.535,0,0,0-3.495.591A8.655,8.655,0,0,0,20.9,13.213" transform="translate(-16.538 -8.268)" fill="#fff"/>
        <path id="Path_7882" data-name="Path 7882" d="M23.53,10.364l-.611-1.483a1.355,1.355,0,0,0-1.767-.742L16.932,9.878a1.356,1.356,0,0,0-.731,1.771l4.07,9.874a1.356,1.356,0,0,0,1.767.742l4.221-1.74a1.355,1.355,0,0,0,.73-1.771q-.386-.937-.5-1.223-.345-.02-.5-.025c-.113,0-.272,0-.48,0q.153.368.657,1.592a.451.451,0,0,1-.243.59l-4.221,1.739a.45.45,0,0,1-.589-.247l-4.07-9.873a.451.451,0,0,1,.243-.59L21.5,8.976a.452.452,0,0,1,.589.248l.619,1.5q.286-.139.44-.2c.1-.041.231-.094.386-.158" transform="translate(-16.098 -8.037)" fill="#fff"/>
      </g>
    </g>
  </g>
</svg>
